<mxfile host="app.diagrams.net" agent="Mozilla/5.0 (Windows NT 10.0; Win64; x64) AppleWebKit/537.36 (KHTML, like Gecko) Chrome/132.0.0.0 Safari/537.36" version="26.0.11">
  <diagram name="Page-1" id="BfW5caTZO6aBBBeoPHTu">
    <mxGraphModel dx="2284" dy="738" grid="1" gridSize="10" guides="1" tooltips="1" connect="1" arrows="1" fold="1" page="1" pageScale="1" pageWidth="850" pageHeight="1100" math="0" shadow="0">
      <root>
        <mxCell id="0" />
        <mxCell id="1" parent="0" />
        <mxCell id="8MxvJwW8k-bYYp4FfBji-4" style="edgeStyle=orthogonalEdgeStyle;rounded=0;orthogonalLoop=1;jettySize=auto;html=1;" edge="1" parent="1" source="8MxvJwW8k-bYYp4FfBji-1">
          <mxGeometry relative="1" as="geometry">
            <mxPoint x="310" y="160" as="targetPoint" />
          </mxGeometry>
        </mxCell>
        <mxCell id="8MxvJwW8k-bYYp4FfBji-1" value="Register[3]" style="rounded=0;whiteSpace=wrap;html=1;" vertex="1" parent="1">
          <mxGeometry x="160" y="80" width="100" height="160" as="geometry" />
        </mxCell>
        <mxCell id="8MxvJwW8k-bYYp4FfBji-2" value="serial in" style="text;html=1;align=center;verticalAlign=middle;whiteSpace=wrap;rounded=0;" vertex="1" parent="1">
          <mxGeometry x="50" y="145" width="60" height="30" as="geometry" />
        </mxCell>
        <mxCell id="8MxvJwW8k-bYYp4FfBji-3" style="edgeStyle=orthogonalEdgeStyle;rounded=0;orthogonalLoop=1;jettySize=auto;html=1;" edge="1" parent="1" source="8MxvJwW8k-bYYp4FfBji-2">
          <mxGeometry relative="1" as="geometry">
            <mxPoint x="150" y="160" as="targetPoint" />
          </mxGeometry>
        </mxCell>
        <mxCell id="8MxvJwW8k-bYYp4FfBji-5" style="edgeStyle=orthogonalEdgeStyle;rounded=0;orthogonalLoop=1;jettySize=auto;html=1;" edge="1" source="8MxvJwW8k-bYYp4FfBji-6" parent="1">
          <mxGeometry relative="1" as="geometry">
            <mxPoint x="460" y="160" as="targetPoint" />
          </mxGeometry>
        </mxCell>
        <mxCell id="8MxvJwW8k-bYYp4FfBji-6" value="Register[2]" style="rounded=0;whiteSpace=wrap;html=1;" vertex="1" parent="1">
          <mxGeometry x="310" y="80" width="100" height="160" as="geometry" />
        </mxCell>
        <mxCell id="8MxvJwW8k-bYYp4FfBji-9" value="out[0]" style="text;html=1;align=center;verticalAlign=middle;resizable=0;points=[];autosize=1;strokeColor=none;fillColor=none;" vertex="1" parent="1">
          <mxGeometry x="710" y="130" width="50" height="30" as="geometry" />
        </mxCell>
        <mxCell id="8MxvJwW8k-bYYp4FfBji-11" style="edgeStyle=orthogonalEdgeStyle;rounded=0;orthogonalLoop=1;jettySize=auto;html=1;" edge="1" parent="1">
          <mxGeometry relative="1" as="geometry">
            <mxPoint x="460" y="160" as="targetPoint" />
            <mxPoint x="410" y="160" as="sourcePoint" />
          </mxGeometry>
        </mxCell>
        <mxCell id="8MxvJwW8k-bYYp4FfBji-12" style="edgeStyle=orthogonalEdgeStyle;rounded=0;orthogonalLoop=1;jettySize=auto;html=1;" edge="1" source="8MxvJwW8k-bYYp4FfBji-13" parent="1">
          <mxGeometry relative="1" as="geometry">
            <mxPoint x="610" y="160" as="targetPoint" />
          </mxGeometry>
        </mxCell>
        <mxCell id="8MxvJwW8k-bYYp4FfBji-13" value="Register[1]" style="rounded=0;whiteSpace=wrap;html=1;" vertex="1" parent="1">
          <mxGeometry x="460" y="80" width="100" height="160" as="geometry" />
        </mxCell>
        <mxCell id="8MxvJwW8k-bYYp4FfBji-14" value="out[1]" style="text;html=1;align=center;verticalAlign=middle;resizable=0;points=[];autosize=1;strokeColor=none;fillColor=none;" vertex="1" parent="1">
          <mxGeometry x="560" y="130" width="50" height="30" as="geometry" />
        </mxCell>
        <mxCell id="8MxvJwW8k-bYYp4FfBji-15" style="edgeStyle=orthogonalEdgeStyle;rounded=0;orthogonalLoop=1;jettySize=auto;html=1;" edge="1" parent="1">
          <mxGeometry relative="1" as="geometry">
            <mxPoint x="610" y="160" as="targetPoint" />
            <mxPoint x="560" y="160" as="sourcePoint" />
          </mxGeometry>
        </mxCell>
        <mxCell id="8MxvJwW8k-bYYp4FfBji-16" style="edgeStyle=orthogonalEdgeStyle;rounded=0;orthogonalLoop=1;jettySize=auto;html=1;" edge="1" source="8MxvJwW8k-bYYp4FfBji-17" parent="1">
          <mxGeometry relative="1" as="geometry">
            <mxPoint x="760" y="160" as="targetPoint" />
          </mxGeometry>
        </mxCell>
        <mxCell id="8MxvJwW8k-bYYp4FfBji-17" value="Register[0]" style="rounded=0;whiteSpace=wrap;html=1;" vertex="1" parent="1">
          <mxGeometry x="610" y="80" width="100" height="160" as="geometry" />
        </mxCell>
        <mxCell id="8MxvJwW8k-bYYp4FfBji-18" value="out[2]" style="text;html=1;align=center;verticalAlign=middle;resizable=0;points=[];autosize=1;strokeColor=none;fillColor=none;" vertex="1" parent="1">
          <mxGeometry x="410" y="130" width="50" height="30" as="geometry" />
        </mxCell>
        <mxCell id="8MxvJwW8k-bYYp4FfBji-19" value="out[3]" style="text;html=1;align=center;verticalAlign=middle;resizable=0;points=[];autosize=1;strokeColor=none;fillColor=none;" vertex="1" parent="1">
          <mxGeometry x="260" y="130" width="50" height="30" as="geometry" />
        </mxCell>
        <mxCell id="8MxvJwW8k-bYYp4FfBji-21" style="edgeStyle=orthogonalEdgeStyle;rounded=0;orthogonalLoop=1;jettySize=auto;html=1;entryX=0.5;entryY=1;entryDx=0;entryDy=0;" edge="1" parent="1" source="8MxvJwW8k-bYYp4FfBji-20" target="8MxvJwW8k-bYYp4FfBji-1">
          <mxGeometry relative="1" as="geometry">
            <Array as="points">
              <mxPoint x="210" y="275" />
            </Array>
          </mxGeometry>
        </mxCell>
        <mxCell id="8MxvJwW8k-bYYp4FfBji-22" style="edgeStyle=orthogonalEdgeStyle;rounded=0;orthogonalLoop=1;jettySize=auto;html=1;entryX=0.5;entryY=1;entryDx=0;entryDy=0;" edge="1" parent="1" source="8MxvJwW8k-bYYp4FfBji-20" target="8MxvJwW8k-bYYp4FfBji-6">
          <mxGeometry relative="1" as="geometry" />
        </mxCell>
        <mxCell id="8MxvJwW8k-bYYp4FfBji-23" style="edgeStyle=orthogonalEdgeStyle;rounded=0;orthogonalLoop=1;jettySize=auto;html=1;entryX=0.5;entryY=1;entryDx=0;entryDy=0;" edge="1" parent="1" source="8MxvJwW8k-bYYp4FfBji-20" target="8MxvJwW8k-bYYp4FfBji-13">
          <mxGeometry relative="1" as="geometry" />
        </mxCell>
        <mxCell id="8MxvJwW8k-bYYp4FfBji-24" style="edgeStyle=orthogonalEdgeStyle;rounded=0;orthogonalLoop=1;jettySize=auto;html=1;entryX=0.5;entryY=1;entryDx=0;entryDy=0;" edge="1" parent="1" source="8MxvJwW8k-bYYp4FfBji-20" target="8MxvJwW8k-bYYp4FfBji-17">
          <mxGeometry relative="1" as="geometry" />
        </mxCell>
        <mxCell id="8MxvJwW8k-bYYp4FfBji-20" value="shift_enable" style="text;html=1;align=center;verticalAlign=middle;resizable=0;points=[];autosize=1;strokeColor=none;fillColor=none;" vertex="1" parent="1">
          <mxGeometry x="35" y="260" width="90" height="30" as="geometry" />
        </mxCell>
        <mxCell id="8MxvJwW8k-bYYp4FfBji-25" style="edgeStyle=orthogonalEdgeStyle;rounded=0;orthogonalLoop=1;jettySize=auto;html=1;" edge="1" source="8MxvJwW8k-bYYp4FfBji-26" parent="1">
          <mxGeometry relative="1" as="geometry">
            <mxPoint x="310" y="530" as="targetPoint" />
          </mxGeometry>
        </mxCell>
        <mxCell id="8MxvJwW8k-bYYp4FfBji-26" value="Register[3]" style="rounded=0;whiteSpace=wrap;html=1;" vertex="1" parent="1">
          <mxGeometry x="125" y="450" width="100" height="160" as="geometry" />
        </mxCell>
        <mxCell id="8MxvJwW8k-bYYp4FfBji-27" value="serial in" style="text;html=1;align=center;verticalAlign=middle;whiteSpace=wrap;rounded=0;" vertex="1" parent="1">
          <mxGeometry x="-10" y="515" width="60" height="30" as="geometry" />
        </mxCell>
        <mxCell id="8MxvJwW8k-bYYp4FfBji-28" style="edgeStyle=orthogonalEdgeStyle;rounded=0;orthogonalLoop=1;jettySize=auto;html=1;entryX=0;entryY=0.5;entryDx=0;entryDy=0;" edge="1" source="8MxvJwW8k-bYYp4FfBji-27" parent="1" target="8MxvJwW8k-bYYp4FfBji-26">
          <mxGeometry relative="1" as="geometry">
            <mxPoint x="80" y="530" as="targetPoint" />
          </mxGeometry>
        </mxCell>
        <mxCell id="8MxvJwW8k-bYYp4FfBji-29" style="edgeStyle=orthogonalEdgeStyle;rounded=0;orthogonalLoop=1;jettySize=auto;html=1;" edge="1" source="8MxvJwW8k-bYYp4FfBji-30" parent="1">
          <mxGeometry relative="1" as="geometry">
            <mxPoint x="460" y="530" as="targetPoint" />
          </mxGeometry>
        </mxCell>
        <mxCell id="8MxvJwW8k-bYYp4FfBji-30" value="Register[2]" style="rounded=0;whiteSpace=wrap;html=1;" vertex="1" parent="1">
          <mxGeometry x="310" y="450" width="100" height="160" as="geometry" />
        </mxCell>
        <mxCell id="8MxvJwW8k-bYYp4FfBji-31" value="parallel_out[0]" style="text;html=1;align=center;verticalAlign=middle;resizable=0;points=[];autosize=1;strokeColor=none;fillColor=none;" vertex="1" parent="1">
          <mxGeometry x="790" y="485" width="100" height="30" as="geometry" />
        </mxCell>
        <mxCell id="8MxvJwW8k-bYYp4FfBji-32" style="edgeStyle=orthogonalEdgeStyle;rounded=0;orthogonalLoop=1;jettySize=auto;html=1;entryX=0;entryY=0.5;entryDx=0;entryDy=0;" edge="1" parent="1" target="8MxvJwW8k-bYYp4FfBji-34">
          <mxGeometry relative="1" as="geometry">
            <mxPoint x="460" y="530" as="targetPoint" />
            <mxPoint x="410" y="530" as="sourcePoint" />
          </mxGeometry>
        </mxCell>
        <mxCell id="8MxvJwW8k-bYYp4FfBji-50" style="edgeStyle=orthogonalEdgeStyle;rounded=0;orthogonalLoop=1;jettySize=auto;html=1;entryX=0;entryY=0.5;entryDx=0;entryDy=0;" edge="1" parent="1" source="8MxvJwW8k-bYYp4FfBji-34" target="8MxvJwW8k-bYYp4FfBji-38">
          <mxGeometry relative="1" as="geometry" />
        </mxCell>
        <mxCell id="8MxvJwW8k-bYYp4FfBji-34" value="Register[1]" style="rounded=0;whiteSpace=wrap;html=1;" vertex="1" parent="1">
          <mxGeometry x="500" y="450" width="100" height="160" as="geometry" />
        </mxCell>
        <mxCell id="8MxvJwW8k-bYYp4FfBji-35" value="parallel_out[1]" style="text;html=1;align=center;verticalAlign=middle;resizable=0;points=[];autosize=1;strokeColor=none;fillColor=none;" vertex="1" parent="1">
          <mxGeometry x="590" y="485" width="100" height="30" as="geometry" />
        </mxCell>
        <mxCell id="8MxvJwW8k-bYYp4FfBji-52" style="edgeStyle=orthogonalEdgeStyle;rounded=0;orthogonalLoop=1;jettySize=auto;html=1;" edge="1" parent="1" source="8MxvJwW8k-bYYp4FfBji-38">
          <mxGeometry relative="1" as="geometry">
            <mxPoint x="830" y="530" as="targetPoint" />
          </mxGeometry>
        </mxCell>
        <mxCell id="8MxvJwW8k-bYYp4FfBji-38" value="Register[0]" style="rounded=0;whiteSpace=wrap;html=1;" vertex="1" parent="1">
          <mxGeometry x="690" y="450" width="100" height="160" as="geometry" />
        </mxCell>
        <mxCell id="8MxvJwW8k-bYYp4FfBji-39" value="parallel_out[2]" style="text;html=1;align=center;verticalAlign=middle;resizable=0;points=[];autosize=1;strokeColor=none;fillColor=none;" vertex="1" parent="1">
          <mxGeometry x="410" y="490" width="100" height="30" as="geometry" />
        </mxCell>
        <mxCell id="8MxvJwW8k-bYYp4FfBji-40" value="parallel_out[3]" style="text;html=1;align=center;verticalAlign=middle;resizable=0;points=[];autosize=1;strokeColor=none;fillColor=none;" vertex="1" parent="1">
          <mxGeometry x="220" y="490" width="100" height="30" as="geometry" />
        </mxCell>
        <mxCell id="8MxvJwW8k-bYYp4FfBji-42" style="edgeStyle=orthogonalEdgeStyle;rounded=0;orthogonalLoop=1;jettySize=auto;html=1;entryX=0.5;entryY=1;entryDx=0;entryDy=0;" edge="1" source="8MxvJwW8k-bYYp4FfBji-45" target="8MxvJwW8k-bYYp4FfBji-30" parent="1">
          <mxGeometry relative="1" as="geometry" />
        </mxCell>
        <mxCell id="8MxvJwW8k-bYYp4FfBji-43" style="edgeStyle=orthogonalEdgeStyle;rounded=0;orthogonalLoop=1;jettySize=auto;html=1;entryX=0.5;entryY=1;entryDx=0;entryDy=0;" edge="1" source="8MxvJwW8k-bYYp4FfBji-45" target="8MxvJwW8k-bYYp4FfBji-34" parent="1">
          <mxGeometry relative="1" as="geometry" />
        </mxCell>
        <mxCell id="8MxvJwW8k-bYYp4FfBji-44" style="edgeStyle=orthogonalEdgeStyle;rounded=0;orthogonalLoop=1;jettySize=auto;html=1;entryX=0.5;entryY=1;entryDx=0;entryDy=0;" edge="1" source="8MxvJwW8k-bYYp4FfBji-45" target="8MxvJwW8k-bYYp4FfBji-38" parent="1">
          <mxGeometry relative="1" as="geometry" />
        </mxCell>
        <mxCell id="8MxvJwW8k-bYYp4FfBji-53" style="edgeStyle=orthogonalEdgeStyle;rounded=0;orthogonalLoop=1;jettySize=auto;html=1;entryX=0.5;entryY=1;entryDx=0;entryDy=0;" edge="1" parent="1" source="8MxvJwW8k-bYYp4FfBji-45" target="8MxvJwW8k-bYYp4FfBji-26">
          <mxGeometry relative="1" as="geometry">
            <Array as="points">
              <mxPoint x="175" y="645" />
            </Array>
          </mxGeometry>
        </mxCell>
        <mxCell id="8MxvJwW8k-bYYp4FfBji-45" value="shift_enable" style="text;html=1;align=center;verticalAlign=middle;resizable=0;points=[];autosize=1;strokeColor=none;fillColor=none;" vertex="1" parent="1">
          <mxGeometry x="20" y="630" width="90" height="30" as="geometry" />
        </mxCell>
        <mxCell id="8MxvJwW8k-bYYp4FfBji-54" style="edgeStyle=orthogonalEdgeStyle;rounded=0;orthogonalLoop=1;jettySize=auto;html=1;entryX=0.5;entryY=0;entryDx=0;entryDy=0;" edge="1" source="8MxvJwW8k-bYYp4FfBji-58" parent="1" target="8MxvJwW8k-bYYp4FfBji-30">
          <mxGeometry relative="1" as="geometry">
            <mxPoint x="360" y="360" as="targetPoint" />
          </mxGeometry>
        </mxCell>
        <mxCell id="8MxvJwW8k-bYYp4FfBji-55" style="edgeStyle=orthogonalEdgeStyle;rounded=0;orthogonalLoop=1;jettySize=auto;html=1;entryX=0.5;entryY=0;entryDx=0;entryDy=0;" edge="1" source="8MxvJwW8k-bYYp4FfBji-58" parent="1" target="8MxvJwW8k-bYYp4FfBji-34">
          <mxGeometry relative="1" as="geometry">
            <mxPoint x="550" y="360" as="targetPoint" />
          </mxGeometry>
        </mxCell>
        <mxCell id="8MxvJwW8k-bYYp4FfBji-56" style="edgeStyle=orthogonalEdgeStyle;rounded=0;orthogonalLoop=1;jettySize=auto;html=1;entryX=0.5;entryY=0;entryDx=0;entryDy=0;" edge="1" source="8MxvJwW8k-bYYp4FfBji-58" parent="1" target="8MxvJwW8k-bYYp4FfBji-38">
          <mxGeometry relative="1" as="geometry">
            <mxPoint x="740" y="360" as="targetPoint" />
          </mxGeometry>
        </mxCell>
        <mxCell id="8MxvJwW8k-bYYp4FfBji-57" style="edgeStyle=orthogonalEdgeStyle;rounded=0;orthogonalLoop=1;jettySize=auto;html=1;entryX=0.5;entryY=0;entryDx=0;entryDy=0;" edge="1" source="8MxvJwW8k-bYYp4FfBji-58" parent="1" target="8MxvJwW8k-bYYp4FfBji-26">
          <mxGeometry relative="1" as="geometry">
            <mxPoint x="240" y="420" as="targetPoint" />
            <Array as="points">
              <mxPoint x="175" y="395" />
            </Array>
          </mxGeometry>
        </mxCell>
        <mxCell id="8MxvJwW8k-bYYp4FfBji-58" value="load_enable" style="text;html=1;align=center;verticalAlign=middle;resizable=0;points=[];autosize=1;strokeColor=none;fillColor=none;" vertex="1" parent="1">
          <mxGeometry x="30" y="380" width="90" height="30" as="geometry" />
        </mxCell>
        <mxCell id="8MxvJwW8k-bYYp4FfBji-59" style="edgeStyle=orthogonalEdgeStyle;rounded=0;orthogonalLoop=1;jettySize=auto;html=1;entryX=0.25;entryY=0;entryDx=0;entryDy=0;" edge="1" source="8MxvJwW8k-bYYp4FfBji-63" parent="1" target="8MxvJwW8k-bYYp4FfBji-30">
          <mxGeometry relative="1" as="geometry">
            <mxPoint x="330" y="410" as="targetPoint" />
          </mxGeometry>
        </mxCell>
        <mxCell id="8MxvJwW8k-bYYp4FfBji-60" style="edgeStyle=orthogonalEdgeStyle;rounded=0;orthogonalLoop=1;jettySize=auto;html=1;entryX=0.25;entryY=0;entryDx=0;entryDy=0;" edge="1" source="8MxvJwW8k-bYYp4FfBji-63" parent="1" target="8MxvJwW8k-bYYp4FfBji-34">
          <mxGeometry relative="1" as="geometry">
            <mxPoint x="520" y="410" as="targetPoint" />
          </mxGeometry>
        </mxCell>
        <mxCell id="8MxvJwW8k-bYYp4FfBji-61" style="edgeStyle=orthogonalEdgeStyle;rounded=0;orthogonalLoop=1;jettySize=auto;html=1;entryX=0.25;entryY=0;entryDx=0;entryDy=0;" edge="1" source="8MxvJwW8k-bYYp4FfBji-63" parent="1" target="8MxvJwW8k-bYYp4FfBji-38">
          <mxGeometry relative="1" as="geometry">
            <mxPoint x="710" y="410" as="targetPoint" />
          </mxGeometry>
        </mxCell>
        <mxCell id="8MxvJwW8k-bYYp4FfBji-62" style="edgeStyle=orthogonalEdgeStyle;rounded=0;orthogonalLoop=1;jettySize=auto;html=1;entryX=0.25;entryY=0;entryDx=0;entryDy=0;" edge="1" source="8MxvJwW8k-bYYp4FfBji-63" parent="1" target="8MxvJwW8k-bYYp4FfBji-26">
          <mxGeometry relative="1" as="geometry">
            <mxPoint x="145" y="410" as="targetPoint" />
            <Array as="points">
              <mxPoint x="150" y="355" />
            </Array>
          </mxGeometry>
        </mxCell>
        <mxCell id="8MxvJwW8k-bYYp4FfBji-63" value="parallel_in[3:0]" style="text;html=1;align=center;verticalAlign=middle;resizable=0;points=[];autosize=1;strokeColor=none;fillColor=none;" vertex="1" parent="1">
          <mxGeometry x="-15" y="340" width="100" height="30" as="geometry" />
        </mxCell>
      </root>
    </mxGraphModel>
  </diagram>
</mxfile>
